<svg xmlns="http://www.w3.org/2000/svg" id="Layer_2" data-name="Layer 2" viewBox="0 0 512 512">
	<g id="Layer_1-2" data-name="Layer 1">
		<path d="M422.31,207.76v87.91c0,5.03.51,10.13-.11,15.09-1.17,9.34,2.06,12.89,11.82,12.47,17.59-.76,35.23-.66,52.83-.37,7.09.11,9.95-2.93,11.35-9.44,15.54-72.31,4.31-139.94-39.13-200.07C404.67,38.02,329.68,2.73,236.82,8.02,129.09,14.15,31.92,100.27,12.61,206.48c-4.34,23.88-4.87,48.46-7.29,74.16-4.86,1.61-4.68-3.8-4.92-8.44-1.76-35.24,2.13-69.83,14.86-102.83C50.88,77.05,117.67,20.44,214.96,3.67c139.05-23.97,271.38,72,293.6,210.89,6.12,38.28,4.23,76.45-7.03,113.86-1.27,4.23-1.88,8.23-8.14,8.15-27.05-.32-54.11-.2-81.16-.27-.89,0-1.77-.45-3.7-.97v-100.77c-4.55,2.63-7.41,4.09-10.07,5.86-10.74,7.12-21.65,14.03-32.02,21.66-5.26,3.87-9,3.35-14.02-.28-10.18-7.37-20.82-14.1-31.3-21.05-2.78-1.84-5.67-3.53-10.11-6.27v101.19h-44.89c-3.28-11.28-2.46-12.51,8.82-12.61,6.84-.06,13.68-.01,21.3-.01v-115.54c12.3,8.12,23.17,15.29,34.03,22.47,7.6,5.03,15.48,9.7,22.7,15.24,4.94,3.79,8.6,3.15,13.37-.1,17.88-12.2,35.99-24.07,55.96-37.35Z" fill="#fff" stroke-width="0"/>
		<path d="M243.5,336.44c-15.68,0-30.75.32-45.78-.3-2.67-.11-6.18-3.57-7.61-6.36-11.51-22.34-22.6-44.89-33.87-67.35-1.49-2.96-3.28-5.77-5.89-10.32-2.38,4.43-4,7.28-5.47,10.21-11.14,22.17-22.43,44.28-33.23,66.61-2.68,5.55-5.77,7.8-12.11,7.68-22.33-.4-44.67-.17-67.01-.11-3.31,0-6.62.38-12.17.73,32.39,81.45,87.74,135.43,170.88,158.86,98.5,27.76,211.04-9.08,275.18-106.79,8.25,3.08,3.52,7.47.92,11.21-36.64,52.73-85.75,88.69-148.21,103.32-99.25,23.24-184.73-3.31-254.44-77.71-26.77-28.57-44.6-62.77-55.39-102,4.46-.41,8.31-1.04,12.15-1.06,22.65-.09,45.3-.23,67.95.1,6.85.1,10.68-2.11,13.77-8.49,13.82-28.54,28.21-56.8,42.42-85.15,1.36-2.72,2.91-5.34,5.12-9.38,11.55,23.07,22.47,44.88,33.39,66.69,4.78,9.55,9.87,18.96,14.21,28.71,2.59,5.81,6.44,7.9,12.49,7.56,5.33-.3,10.8.62,16.02-.18,9.84-1.51,14.6,2.94,16.69,13.51Z" fill="#fff" stroke-width="0"/>
		<path d="M440.16,174.96c-4.61,2.77-7.54,4.37-10.32,6.22-20.94,13.92-41.98,27.71-62.7,41.95-5.43,3.73-9.31,4.06-14.98.15-20.96-14.45-42.35-28.28-63.59-42.33-2.55-1.69-5.19-3.24-9.47-5.9v128.72h-13.82v-155.39c16.13,10.64,31.54,20.74,46.89,30.94,13.35,8.88,26.78,17.66,39.87,26.91,5.33,3.77,9.3,3.94,14.89.12,26.22-17.91,52.77-35.32,79.22-52.9,2.07-1.38,4.21-2.66,7.34-4.63v155.13h-13.33v-128.98Z" fill="#fff" stroke-width="0"/>
		<path d="M72.93,303.41c25.76-51.53,51.24-102.5,77.58-155.17,26.22,52.43,51.69,103.35,77.2,154.37-12.32,3.78-14.18,3.09-19.4-7.36-17.11-34.23-34.17-68.48-51.27-102.71-1.76-3.52-3.62-6.98-6.43-12.38-2.71,5.06-4.48,8.2-6.09,11.41-17.15,34.25-34.62,68.34-51.18,102.88-4.38,9.14-9.78,12.1-20.41,8.96Z" fill="#fff" stroke-width="0"/>
	</g>
</svg>