<svg xmlns="http://www.w3.org/2000/svg" id="Layer_1" data-name="Layer 1" viewBox="0 0 512 512">
	<path d="M489.09,301.59c-14.68-.2-101.22-3.07-114.35-2.5-7.62.33-10.14-2.44-9.23-9.73.49-3.87.09-7.85.09-11.78v-68.61c-15.58,10.37-29.72,19.63-43.68,29.15-3.72,2.54-6.58,3.04-10.43.08-5.63-4.32-11.78-7.97-17.71-11.9-8.47-5.6-16.96-11.2-26.56-17.53v90.18c-5.95,0-11.28-.04-16.62,0-8.81.08-9.45,1.04-6.88,9.84h35.03v-78.98c3.46,2.14,5.72,3.46,7.89,4.89,8.18,5.42,16.49,10.68,24.43,16.43,3.91,2.83,6.83,3.24,10.94.22,8.09-5.96,16.61-11.34,24.99-16.9,2.08-1.38,4.31-2.52,7.86-4.57v78.65c1.5.41,2.19.75,2.88.75,17.48.05,102.6,2.16,124.61,2.29,1.65-3.62,4.78-6.55,6.74-9.99Z" fill="#014c78" stroke="#014c78" stroke-miterlimit="10" stroke-width="10"/>
	<path d="M378.57,183.88c-3.6,2.16-5.89,3.41-8.05,4.85-16.35,10.86-32.76,21.63-48.94,32.74-4.24,2.91-7.26,3.17-11.69.12-16.36-11.28-33.05-22.08-49.63-33.04-1.99-1.32-4.05-2.53-7.39-4.61v100.46h-10.79v-121.28c12.59,8.3,24.62,16.18,36.59,24.15,10.42,6.93,20.9,13.78,31.12,21,4.16,2.94,7.26,3.07,11.62.09,20.46-13.97,41.19-27.57,61.83-41.28,1.62-1.08,3.29-2.07,5.73-3.61v121.07h-10.41v-100.67Z" fill="#014c78" stroke="#014c78" stroke-miterlimit="10" stroke-width="10"/>
	<path d="M91.95,284.13c20.11-40.22,39.99-80,60.55-121.1,20.47,40.92,40.34,80.66,60.25,120.48-9.62,2.95-11.06,2.41-15.14-5.74-13.36-26.71-26.67-53.45-40.01-80.17-1.37-2.74-2.82-5.45-5.02-9.66-2.11,3.95-3.5,6.4-4.75,8.91-13.39,26.73-27.02,53.34-39.94,80.29-3.42,7.14-7.63,9.45-15.93,6.99Z" fill="#014c78" stroke="#014c78" stroke-miterlimit="10" stroke-width="10"/>
	<path d="M212.05,299.37c-4.08.63-8.34-.09-12.5.14-4.72.26-7.73-1.36-9.75-5.9-3.39-7.61-7.36-14.95-11.09-22.41-8.52-17.02-17.04-34.04-26.06-52.05-1.73,3.15-2.94,5.2-4,7.32-11.09,22.13-22.32,44.19-33.11,66.46-2.41,4.98-5.4,6.71-10.75,6.63-16.35-.24-68.99,2.77-83.3,2.84.83,1.82,51.58.72,52.3,2.59.63,1.63-51.61,3.75-51.11,5.41,12.39-.05,77.41-.57,90.03-.34,4.95.09,7.36-1.66,9.45-6,8.43-17.43,17.24-34.68,25.93-51.99,1.15-2.29,2.41-4.52,4.27-7.97,2.04,3.55,3.44,5.74,4.6,8.05,8.8,17.53,17.45,35.13,26.43,52.57,1.12,2.17,3.86,4.88,5.94,4.96,11.73.48,23.49.23,35.73.23-1.63-8.25-5.35-11.73-13.03-10.55Z" fill="#014c78" stroke="#014c78" stroke-miterlimit="10" stroke-width="10"/>
	<circle cx="256" cy="255.8" r="237.5" fill="none" stroke="#014c78" stroke-miterlimit="10" stroke-width="20"/>
</svg>